<svg xmlns="http://www.w3.org/2000/svg" width="178" height="202" viewBox="0 0 178 202" fill="none">
    <path d="M178 101.018C178 89.2744 163.233 78.145 140.593 71.2433C145.818 48.2619 143.496 29.9779 133.264 24.1241C130.906 22.751 128.148 22.1006 125.137 22.1006V30.1586C126.806 30.1586 128.148 30.4838 129.273 31.098C134.208 33.9165 136.348 44.6484 134.679 58.4518C134.28 61.8484 133.627 65.4257 132.829 69.0753C125.717 67.3408 117.953 66.0038 109.79 65.1366C104.892 58.4518 99.8121 52.3812 94.6963 47.0694C106.524 36.1207 117.627 30.1224 125.173 30.1224V22.0645C115.196 22.0645 102.134 29.1468 88.9274 41.4325C75.7207 29.2191 62.6592 22.209 52.6816 22.209V30.267C60.192 30.267 71.3306 36.2291 83.1586 47.1056C78.0791 52.4173 72.9996 58.4518 68.1741 65.1366C59.9743 66.0038 52.2099 67.3408 45.0987 69.1114C44.2642 65.498 43.6474 61.9929 43.212 58.6324C41.5067 44.8291 43.6111 34.0972 48.5092 31.2426C49.5976 30.5922 51.0126 30.3031 52.6816 30.3031V22.2451C49.6339 22.2451 46.8765 22.8955 44.4819 24.2686C34.2866 30.1224 32.0008 48.3703 37.2617 71.2795C14.6943 78.2173 0 89.3105 0 101.018C0 112.762 14.7668 123.891 37.4068 130.793C32.1822 153.774 34.5043 172.058 44.7358 177.912C47.0942 179.285 49.8516 179.936 52.8993 179.936C62.8769 179.936 75.9384 172.853 89.1451 160.567C102.352 172.781 115.413 179.791 125.391 179.791C128.439 179.791 131.196 179.141 133.591 177.767C143.786 171.914 146.072 153.666 140.811 130.757C163.306 123.855 178 112.726 178 101.018ZM130.761 76.9164C129.418 81.5778 127.749 86.3836 125.863 91.1895C124.375 88.2987 122.815 85.408 121.11 82.5173C119.441 79.6265 117.663 76.808 115.885 74.0618C121.037 74.8206 126.008 75.7601 130.761 76.9164ZM114.143 115.4C111.313 120.278 108.411 124.903 105.4 129.203C99.9935 129.673 94.5149 129.926 89 129.926C83.5214 129.926 78.0428 129.673 72.6731 129.239C69.6616 124.939 66.7228 120.35 63.8928 115.508C61.1353 110.774 58.6319 105.968 56.3461 101.126C58.5956 96.2844 61.1354 91.4424 63.8565 86.7088C66.6865 81.8307 69.5891 77.2055 72.6005 72.9055C78.0065 72.4358 83.4851 72.1828 89 72.1828C94.4786 72.1828 99.9572 72.4358 105.327 72.8694C108.338 77.1694 111.277 81.7584 114.107 86.6004C116.865 91.334 119.368 96.1399 121.654 100.982C119.368 105.824 116.865 110.666 114.143 115.4ZM125.863 110.702C127.822 115.544 129.491 120.386 130.87 125.084C126.117 126.24 121.11 127.215 115.921 127.974C117.699 125.192 119.477 122.337 121.146 119.41C122.815 116.52 124.375 113.593 125.863 110.702ZM89.0726 149.257C85.6983 145.789 82.3241 141.922 78.9861 137.694C82.2515 137.839 85.5895 137.947 88.9637 137.947C92.3742 137.947 95.7485 137.875 99.0501 137.694C95.7848 141.922 92.4105 145.789 89.0726 149.257ZM62.0787 127.974C56.9266 127.215 51.956 126.276 47.203 125.12C48.5455 120.458 50.2144 115.652 52.1011 110.847C53.5887 113.737 55.1488 116.628 56.8541 119.519C58.5593 122.41 60.3009 125.228 62.0787 127.974ZM88.8912 52.7787C92.2654 56.2476 95.6396 60.1139 98.9776 64.3417C95.7122 64.1971 92.3742 64.0887 89 64.0887C85.5895 64.0887 82.2153 64.161 78.9136 64.3417C82.179 60.1139 85.5532 56.2476 88.8912 52.7787ZM62.0424 74.0618C60.2646 76.8442 58.4867 79.6988 56.8178 82.6257C55.1488 85.5164 53.5887 88.4072 52.1011 91.2979C50.1419 86.4559 48.4729 81.6139 47.0942 76.9164C51.8471 75.7963 56.8541 74.8206 62.0424 74.0618ZM29.2071 119.302C16.3632 113.846 8.05463 106.691 8.05463 101.018C8.05463 95.345 16.3632 88.1542 29.2071 82.7341C32.3274 81.3971 35.7379 80.2047 39.2572 79.0845C41.3253 86.1668 44.0465 93.5382 47.4207 101.09C44.0828 108.606 41.3979 115.942 39.3661 122.988C35.7742 121.868 32.3636 120.639 29.2071 119.302ZM48.7269 170.938C43.7925 168.12 41.6519 157.388 43.3208 143.584C43.7199 140.188 44.373 136.61 45.1712 132.961C52.2825 134.695 60.0469 136.032 68.2104 136.899C73.1084 143.584 78.1879 149.655 83.3037 154.967C71.4757 165.915 60.3734 171.914 52.8267 171.914C51.194 171.878 49.8153 171.552 48.7269 170.938ZM134.788 143.404C136.493 157.207 134.389 167.939 129.491 170.794C128.402 171.444 126.987 171.733 125.318 171.733C117.808 171.733 106.669 165.771 94.8414 154.894C99.9209 149.583 105 143.548 109.826 136.863C118.026 135.996 125.79 134.659 132.901 132.889C133.736 136.538 134.389 140.043 134.788 143.404ZM148.757 119.302C145.636 120.639 142.226 121.831 138.706 122.952C136.638 115.869 133.917 108.498 130.543 100.946C133.881 93.4298 136.566 86.0946 138.598 79.0484C142.19 80.1685 145.6 81.3971 148.793 82.7341C161.637 88.1903 169.945 95.345 169.945 101.018C169.909 106.691 161.6 113.882 148.757 119.302Z" fill="#DAA520"/>
    <path d="M88.9637 117.531C98.1211 117.531 105.545 110.138 105.545 101.018C105.545 91.8979 98.1211 84.5046 88.9637 84.5046C79.8063 84.5046 72.3828 91.8979 72.3828 101.018C72.3828 110.138 79.8063 117.531 88.9637 117.531Z" fill="#DAA520"/>
  </svg>